<svg width="32" height="33" viewBox="0 0 32 33" fill="none" xmlns="http://www.w3.org/2000/svg">
<path d="M32 0.5V32.5H0V0.5H32Z" fill="white" fill-opacity="0.01"/>
<path d="M14 3.83301C14.93 3.83301 15.395 3.83301 15.7765 3.93523C16.8117 4.21263 17.6204 5.02127 17.8978 6.05655C18 6.43805 18 6.90304 18 7.83301V8.63301C18 9.75311 18 10.3132 18.218 10.741C18.4097 11.1173 18.7157 11.4233 19.092 11.615C19.5198 11.833 20.0799 11.833 21.2 11.833H22C22.93 11.833 23.395 11.833 23.7765 11.9352C24.8117 12.2126 25.6204 13.0213 25.8978 14.0566C26 14.438 26 14.903 26 15.833M12 21.833H20M12 16.4997H13.3333M14.6193 3.83301H14C10.2288 3.83301 8.34315 3.83301 7.17157 5.00458C6 6.17615 6 8.06177 6 11.833V21.1663C6 24.9376 6 26.8232 7.17157 27.9948C8.34315 29.1663 10.2288 29.1663 14 29.1663H18C21.7712 29.1663 23.6569 29.1663 24.8284 27.9948C26 26.8232 26 24.9376 26 21.1663V15.2137C26 13.0162 26 11.9174 25.6318 10.9154C25.5758 10.7632 25.5138 10.6133 25.4457 10.4661C24.9975 9.49719 24.2206 8.72024 22.6667 7.16634C21.1128 5.61244 20.3358 4.83549 19.3669 4.38732C19.2197 4.31925 19.0698 4.25717 18.9176 4.20124C17.9156 3.83301 16.8168 3.83301 14.6193 3.83301Z" stroke="#16489A" stroke-width="2" stroke-linecap="round" stroke-linejoin="round"/>
</svg>
