<svg width="18" height="18" viewBox="0 0 18 18" fill="none" xmlns="http://www.w3.org/2000/svg">
<path d="M18 0V18H0V0H18Z" fill="white" fill-opacity="0.01"/>
<path d="M15.75 9C15.75 10.875 12.7279 14.25 9 14.25C5.27208 14.25 2.25 10.875 2.25 9C2.25 7.125 5.27208 3.75 9 3.75C12.7279 3.75 15.75 7.125 15.75 9Z" stroke="#5F5E66" stroke-width="1.5"/>
<path d="M8.25977 7.69531C8.35324 8.78169 9.21748 9.64529 10.3037 9.73926C10.0458 10.1931 9.55932 10.5 9 10.5C8.17157 10.5 7.5 9.82843 7.5 9C7.5 8.44081 7.80609 7.95327 8.25977 7.69531Z" stroke="#10161F" stroke-width="1.5"/>
</svg>
