<svg width="41" height="41" viewBox="0 0 41 41" fill="none" xmlns="http://www.w3.org/2000/svg">
<path d="M40.5 0.577637V40.5776H0.5V0.577637H40.5Z" fill="white" fill-opacity="0.01"/>
<path d="M18 3.74414C17.4477 3.74414 17 4.19186 17 4.74414C17 5.29643 17.4477 5.74414 18 5.74414V4.74414V3.74414ZM23.041 11.9323L22.0533 12.0887L23.041 11.9323ZM25.8119 14.7031L25.6555 15.6908L25.8119 14.7031ZM22.1764 4.88152L22.0112 5.86778L22.1764 4.88152ZM26.3304 6.60215L26.911 5.78795V5.78795L26.3304 6.60215ZM10.4374 34.8975L9.80298 35.6706L10.4374 34.8975ZM9.51326 33.9734L8.74025 34.6078L9.51326 33.9734ZM32.8626 15.5677L31.8764 15.7329L32.8626 15.5677ZM31.142 11.4138L31.9562 10.8332L31.142 11.4138ZM8.59486 8.65806L9.50563 9.07097L8.59486 8.65806ZM11.9139 5.339L12.3268 6.24977L11.9139 5.339ZM23.8333 29.578C23.281 29.578 22.8333 30.0257 22.8333 30.578C22.8333 31.1303 23.281 31.578 23.8333 31.578V30.578V29.578ZM34.3802 31.578C34.9325 31.578 35.3802 31.1303 35.3802 30.578C35.3802 30.0257 34.9325 29.578 34.3802 29.578V30.578V31.578ZM30.0159 34.4169C29.5326 34.6842 29.3575 35.2927 29.6248 35.776C29.8921 36.2593 30.5006 36.4344 30.9839 36.1671L30.4999 35.292L30.0159 34.4169ZM30.9836 24.9887C30.5002 24.7216 29.8918 24.8969 29.6247 25.3803C29.3575 25.8636 29.5328 26.472 30.0162 26.7392L30.4999 25.8639L30.9836 24.9887ZM34.9371 30.0992L35.7928 29.5816L34.9371 30.0992ZM35.1424 30.578L34.1424 30.5778L35.1424 30.578ZM8 23.9108H9V15.0238H8H7V23.9108H8ZM18.2797 4.74414V5.74414H18.7741V4.74414V3.74414H18.2797V4.74414ZM23 9.74414H22V10.7441H23H24V9.74414H23ZM27 14.7441V15.7441H28V14.7441V13.7441H27V14.7441ZM28 14.7441V15.7441C30.2091 15.7441 32 17.535 32 19.7441H33H34C34 16.4304 31.3137 13.7441 28 13.7441V14.7441ZM23 10.7441H22C22 11.3253 21.9969 11.7323 22.0533 12.0887L23.041 11.9323L24.0287 11.7758C24.0031 11.614 24 11.4017 24 10.7441H23ZM27 14.7441V13.7441C26.3424 13.7441 26.1301 13.741 25.9683 13.7154L25.8119 14.7031L25.6555 15.6908C26.0119 15.7472 26.4189 15.7441 27 15.7441V14.7441ZM23.041 11.9323L22.0533 12.0887C22.347 13.9429 23.8012 15.3971 25.6555 15.6908L25.8119 14.7031L25.9683 13.7154C24.9699 13.5573 24.1869 12.7742 24.0287 11.7758L23.041 11.9323ZM23 9.74414H24C24 6.43043 21.3137 3.74414 18 3.74414V4.74414V5.74414C20.2091 5.74414 22 7.535 22 9.74414H23ZM18.7741 4.74414V5.74414C20.5288 5.74414 21.2921 5.74734 22.0112 5.86778L22.1764 4.88152L22.3416 3.89526C21.4203 3.74094 20.4622 3.74414 18.7741 3.74414V4.74414ZM28.8333 8.91081L29.5404 8.2037C28.3468 7.01001 27.6716 6.33032 26.911 5.78795L26.3304 6.60215L25.7498 7.41635C26.3435 7.83968 26.8855 8.37719 28.1262 9.61791L28.8333 8.91081ZM22.1764 4.88152L22.0112 5.86778C23.3588 6.09349 24.6373 6.62306 25.7498 7.41635L26.3304 6.60215L26.911 5.78795C25.5513 4.81838 23.9887 4.17113 22.3416 3.89526L22.1764 4.88152ZM20.5 36.4108V35.4108C17.7359 35.4108 15.7508 35.4092 14.2229 35.2286C12.717 35.0506 11.786 34.7107 11.0718 34.1245L10.4374 34.8975L9.80298 35.6706C10.9326 36.5976 12.2934 37.0144 13.9881 37.2147C15.6607 37.4124 17.7849 37.4108 20.5 37.4108V36.4108ZM8 23.9108H7C7 26.6259 6.99836 28.7501 7.19607 30.4227C7.39639 32.1174 7.81317 33.4782 8.74025 34.6078L9.51326 33.9734L10.2863 33.339C9.70009 32.6248 9.36024 31.6938 9.18224 30.1879C9.00164 28.66 9 26.6749 9 23.9108H8ZM10.4374 34.8975L11.0718 34.1245C10.7848 33.8891 10.5217 33.626 10.2863 33.339L9.51326 33.9734L8.74025 34.6078C9.05884 34.996 9.41479 35.352 9.80298 35.6706L10.4374 34.8975ZM33 18.97H34C34 17.2819 34.0032 16.3239 33.8489 15.4025L32.8626 15.5677L31.8764 15.7329C31.9968 16.452 32 17.2154 32 18.97H33ZM28.8333 8.91081L28.1262 9.61791C29.3669 10.8586 29.9045 11.4007 30.3278 11.9943L31.142 11.4138L31.9562 10.8332C31.4138 10.0726 30.7341 9.39739 29.5404 8.2037L28.8333 8.91081ZM32.8626 15.5677L33.8489 15.4025C33.573 13.7555 32.9258 12.1929 31.9562 10.8332L31.142 11.4138L30.3278 11.9943C31.1211 13.1068 31.6506 14.3853 31.8764 15.7329L32.8626 15.5677ZM8 15.0238H9C9 13.3244 9.00064 12.1041 9.07164 11.1433C9.1419 10.1924 9.27706 9.57514 9.50563 9.07097L8.59486 8.65806L7.68409 8.24515C7.3178 9.05308 7.15553 9.93413 7.07708 10.9959C6.99936 12.0476 7 13.3541 7 15.0238H8ZM18.2797 4.74414V3.74414C16.61 3.74414 15.3034 3.74351 14.2517 3.82122C13.19 3.89967 12.3089 4.06194 11.501 4.42823L11.9139 5.339L12.3268 6.24977C12.831 6.0212 13.4483 5.88604 14.3991 5.81578C15.36 5.74478 16.5803 5.74414 18.2797 5.74414V4.74414ZM8.59486 8.65806L9.50563 9.07097C10.0729 7.81966 11.0755 6.81707 12.3268 6.24977L11.9139 5.339L11.501 4.42823C9.80806 5.19575 8.45161 6.5522 7.68409 8.24515L8.59486 8.65806ZM33 18.97H32V20.5775H33H34V18.97H33ZM23.8333 30.578V31.578H34.3802V30.578V29.578H23.8333V30.578ZM34.937 31.0567L34.0815 30.5388C33.0638 32.2201 31.7896 33.436 30.0159 34.4169L30.4999 35.292L30.9839 36.1671C33.0536 35.0224 34.5881 33.5641 35.7925 31.5745L34.937 31.0567ZM30.4999 25.8639L30.0162 26.7392C31.7903 27.7196 33.0643 28.9352 34.0815 30.6168L34.9371 30.0992L35.7928 29.5816C34.5888 27.5913 33.0542 26.1329 30.9836 24.9887L30.4999 25.8639ZM34.937 31.0567L35.7925 31.5745C35.8756 31.4372 36.1423 31.0579 36.1424 30.5781L35.1424 30.578L34.1424 30.5778C34.1424 30.5539 34.1439 30.529 34.1471 30.5035C34.1503 30.4781 34.1549 30.4548 34.1602 30.434C34.1706 30.3931 34.182 30.368 34.1834 30.3649C34.1841 30.3636 34.1791 30.3744 34.1602 30.4071C34.1513 30.4226 34.1406 30.4408 34.1272 30.4632C34.1137 30.4858 34.0989 30.5101 34.0815 30.5388L34.937 31.0567ZM34.9371 30.0992L34.0815 30.6168C34.0989 30.6455 34.1136 30.6699 34.1271 30.6924C34.1405 30.7148 34.1512 30.733 34.1602 30.7485C34.179 30.7812 34.184 30.7921 34.1834 30.7907C34.1819 30.7876 34.1705 30.7626 34.1602 30.7216C34.1549 30.7009 34.1503 30.6775 34.1471 30.6521C34.1438 30.6266 34.1424 30.6017 34.1424 30.5778L35.1424 30.578L36.1424 30.5781C36.1424 30.0983 35.8759 29.719 35.7928 29.5816L34.9371 30.0992Z" fill="white"/>
</svg>
