<svg width="40" height="41" viewBox="0 0 40 41" fill="none" xmlns="http://www.w3.org/2000/svg">
<path d="M40 0.577637V40.5776H0V0.577637H40Z" fill="white" fill-opacity="0.01"/>
<path d="M16.6667 14.5775C16.1144 14.5775 15.6667 15.0252 15.6667 15.5775C15.6667 16.1298 16.1144 16.5775 16.6667 16.5775V15.5775V14.5775ZM23.3333 16.5775C23.8856 16.5775 24.3333 16.1298 24.3333 15.5775C24.3333 15.0252 23.8856 14.5775 23.3333 14.5775V15.5775V16.5775ZM16.6667 21.2441C16.1144 21.2441 15.6667 21.6919 15.6667 22.2441C15.6667 22.7964 16.1144 23.2441 16.6667 23.2441V22.2441V21.2441ZM20 23.2441C20.5523 23.2441 21 22.7964 21 22.2441C21 21.6919 20.5523 21.2441 20 21.2441V22.2441V23.2441ZM10 13.9108V14.9108C10.5523 14.9108 11 14.4631 11 13.9108H10ZM13.3333 35.5775H12.3333C12.3333 36.1298 12.781 36.5775 13.3333 36.5775V35.5775ZM13.3333 35.5608V34.5608C12.781 34.5608 12.3333 35.0085 12.3333 35.5608H13.3333ZM16.7399 28.984L17.447 29.6911L16.7399 28.984ZM32.7475 34.9917L32.0404 34.2846L32.7475 34.9917ZM33.2601 28.984L32.553 29.6911L33.2601 28.984ZM10.5858 35.0084L11.2929 34.3012L10.5858 35.0084ZM28.8284 8.41571L28.1213 9.12282L28.8284 8.41571ZM16.3987 34.5608L15.5327 34.0608L16.3987 34.5608ZM15.6667 35.2929L16.1667 36.1589L15.6667 35.2929ZM5.07322 13.8376L4.36612 14.5447L5.07322 13.8376ZM16.6667 15.5775V16.5775H23.3333V15.5775V14.5775H16.6667V15.5775ZM16.6667 22.2441V23.2441H20V22.2441V21.2441H16.6667V22.2441ZM9 7.24414V8.24414H10V7.24414V6.24414H9V7.24414ZM10 7.24414H9V13.9108H10H11V7.24414H10ZM10 13.9108V12.9108H5.5V13.9108V14.9108H10V13.9108ZM5 13.4108H6V11.2441H5H4V13.4108H5ZM10 7.24414V8.24414H22V7.24414V6.24414H10V7.24414ZM30 15.2441H29V28.9108H30H31V15.2441H30ZM10 7.24414H9V31.5941H10H11V7.24414H10ZM14 35.5941V36.5941H16.6667V35.5941V34.5941H14V35.5941ZM33.3333 29.4108H32.3333V31.5775H33.3333H34.3333V29.4108H33.3333ZM29.3333 35.5775V34.5775H13.3333V35.5775V36.5775H29.3333V35.5775ZM16.6667 32.2275H17.6667V29.4108H16.6667H15.6667V32.2275H16.6667ZM17.1667 28.9108V29.9108H32.8333V28.9108V27.9108H17.1667V28.9108ZM13.3333 35.5775H14.3333V35.5608H13.3333H12.3333V35.5775H13.3333ZM16.6667 29.4108H17.6667C17.6667 29.3482 17.6667 29.3103 17.6675 29.2802C17.6683 29.2496 17.6693 29.2516 17.6669 29.2697C17.6644 29.2885 17.655 29.3495 17.6223 29.4289C17.5864 29.5163 17.5293 29.6088 17.447 29.6911L16.7399 28.984L16.0328 28.2769C15.7794 28.5303 15.7088 28.8243 15.6847 29.0032C15.6645 29.1534 15.6667 29.3212 15.6667 29.4108H16.6667ZM17.1667 28.9108V27.9108C17.0771 27.9108 16.9093 27.9087 16.7591 27.9289C16.5801 27.9529 16.2862 28.0235 16.0328 28.2769L16.7399 28.984L17.447 29.6911C17.3647 29.7734 17.2722 29.8305 17.1848 29.8665C17.1054 29.8992 17.0444 29.9085 17.0256 29.911C17.0075 29.9135 17.0054 29.9124 17.0361 29.9116C17.0662 29.9109 17.104 29.9108 17.1667 29.9108V28.9108ZM33.3333 31.5775H32.3333C32.3333 32.5486 32.3312 33.1763 32.269 33.6388C32.2107 34.0725 32.1166 34.2085 32.0404 34.2846L32.7475 34.9917L33.4547 35.6988C33.9643 35.1891 34.1631 34.5608 34.2512 33.9053C34.3355 33.2785 34.3333 32.492 34.3333 31.5775H33.3333ZM29.3333 35.5775V36.5775C30.2479 36.5775 31.0344 36.5796 31.6611 36.4953C32.3166 36.4072 32.945 36.2085 33.4547 35.6988L32.7475 34.9917L32.0404 34.2846C31.9643 34.3607 31.8284 34.4549 31.3946 34.5132C30.9321 34.5753 30.3044 34.5775 29.3333 34.5775V35.5775ZM33.3333 29.4108H34.3333C34.3333 29.3212 34.3355 29.1534 34.3153 29.0032C34.2912 28.8243 34.2206 28.5303 33.9672 28.2769L33.2601 28.984L32.553 29.6911C32.4707 29.6088 32.4136 29.5163 32.3776 29.4289C32.345 29.3495 32.3356 29.2885 32.3331 29.2697C32.3307 29.2516 32.3317 29.2496 32.3325 29.2802C32.3333 29.3103 32.3333 29.3482 32.3333 29.4108H33.3333ZM32.8333 28.9108V29.9108C32.896 29.9108 32.9338 29.9109 32.9639 29.9116C32.9946 29.9124 32.9925 29.9135 32.9744 29.911C32.9556 29.9085 32.8946 29.8992 32.8152 29.8665C32.7278 29.8305 32.6353 29.7734 32.553 29.6911L33.2601 28.984L33.9672 28.2769C33.7138 28.0235 33.4199 27.9529 33.2409 27.9289C33.0907 27.9087 32.9229 27.9108 32.8333 27.9108V28.9108ZM10 31.5941H9C9 32.5087 8.99788 33.2952 9.08214 33.9219C9.17027 34.5774 9.36902 35.2058 9.87868 35.7155L10.5858 35.0084L11.2929 34.3012C11.2168 34.2251 11.1226 34.0892 11.0643 33.6554C11.0021 33.1929 11 32.5652 11 31.5941H10ZM14 35.5941V34.5941C13.0289 34.5941 12.4012 34.592 11.9387 34.5298C11.505 34.4715 11.369 34.3774 11.2929 34.3012L10.5858 35.0084L9.87868 35.7155C10.3883 36.2251 11.0167 36.4239 11.6722 36.512C12.299 36.5963 13.0855 36.5941 14 36.5941V35.5941ZM22 7.24414V8.24414C23.9139 8.24414 25.2487 8.24626 26.2558 8.38167C27.2342 8.51321 27.7523 8.7538 28.1213 9.12282L28.8284 8.41571L29.5355 7.70861C28.733 6.90605 27.7225 6.56086 26.5223 6.3995C25.351 6.24202 23.8573 6.24414 22 6.24414V7.24414ZM30 15.2441H31C31 13.3868 31.0021 11.8932 30.8446 10.7218C30.6833 9.52166 30.3381 8.51116 29.5355 7.70861L28.8284 8.41571L28.1213 9.12282C28.4903 9.49184 28.7309 10.0099 28.8625 10.9883C28.9979 11.9954 29 13.3303 29 15.2441H30ZM16.6667 32.2275H15.6667C15.6667 32.869 15.6657 33.2832 15.6373 33.5971C15.61 33.8973 15.5641 34.0063 15.5327 34.0608L16.3987 34.5608L17.2647 35.0608C17.5012 34.6512 17.5893 34.2166 17.6291 33.7777C17.6676 33.3525 17.6667 32.8321 17.6667 32.2275H16.6667ZM13.3333 35.5608V36.5608C13.938 36.5608 14.4584 36.5618 14.8835 36.5232C15.3224 36.4834 15.757 36.3954 16.1667 36.1589L15.6667 35.2929L15.1667 34.4268C15.1122 34.4583 15.0032 34.5042 14.703 34.5314C14.3891 34.5598 13.9748 34.5608 13.3333 34.5608V35.5608ZM16.3987 34.5608L15.5327 34.0608C15.4449 34.2128 15.3187 34.3391 15.1667 34.4268L15.6667 35.2929L16.1667 36.1589C16.6227 35.8956 17.0014 35.5169 17.2647 35.0608L16.3987 34.5608ZM5.5 13.9108V12.9108C5.43736 12.9108 5.39953 12.9107 5.3694 12.91C5.33877 12.9092 5.34081 12.9081 5.35893 12.9106C5.37769 12.9131 5.43871 12.9225 5.51812 12.9551C5.60553 12.9911 5.69802 13.0482 5.78033 13.1305L5.07322 13.8376L4.36612 14.5447C4.6195 14.7981 4.91347 14.8687 5.09243 14.8927C5.24263 14.9129 5.41042 14.9108 5.5 14.9108V13.9108ZM5 13.4108H4C4 13.5004 3.99788 13.6682 4.01807 13.8184C4.04213 13.9973 4.11274 14.2913 4.36612 14.5447L5.07322 13.8376L5.78033 13.1305C5.86264 13.2128 5.91973 13.3053 5.95568 13.3927C5.98836 13.4721 5.99771 13.5331 6.00024 13.5519C6.00267 13.57 6.0016 13.572 6.00083 13.5414C6.00007 13.5113 6 13.4735 6 13.4108H5ZM9 7.24414V6.24414C8.08546 6.24414 7.29896 6.24202 6.67221 6.32628C6.01669 6.41441 5.38834 6.61316 4.87868 7.12282L5.58579 7.82993L6.29289 8.53703C6.36902 8.46091 6.50496 8.36676 6.9387 8.30845C7.40121 8.24626 8.02892 8.24414 9 8.24414V7.24414ZM5 11.2441H6C6 10.2731 6.00212 9.64535 6.06431 9.18284C6.12262 8.74911 6.21677 8.61316 6.29289 8.53703L5.58579 7.82993L4.87868 7.12282C4.36902 7.63248 4.17027 8.26083 4.08214 8.91635C3.99788 9.5431 4 10.3296 4 11.2441H5Z" fill="white"/>
</svg>
