<svg width="18" height="18" viewBox="0 0 18 18" fill="none" xmlns="http://www.w3.org/2000/svg">
<path d="M18 0V18H0V0H18Z" fill="white" fill-opacity="0.01"/>
<path d="M5.59847 12.4014C8.64317 15.4461 11.5095 15.8153 12.442 15.8496C12.6532 15.8574 12.861 15.8228 13.0661 15.7716L13.1215 15.7577C14.229 15.4808 15.1433 14.7022 15.593 13.6529C15.6437 13.5346 15.629 13.3978 15.5497 13.2963C14.7448 12.2655 13.6425 11.5249 12.5723 10.7851C12.3726 10.647 12.1024 10.6705 11.9307 10.8422L10.8551 11.9178C10.7212 12.0517 10.5239 12.0982 10.3491 12.0251C9.83089 11.8085 8.7025 11.2628 7.71979 10.2801C6.73708 9.29742 6.1914 8.16903 5.97479 7.6508C5.90175 7.47607 5.94823 7.27872 6.08214 7.14481L7.15835 6.0686C7.32975 5.89719 7.3535 5.62754 7.21699 5.42723C6.48831 4.35792 5.74878 3.20358 4.7011 2.43936C4.60071 2.36614 4.46889 2.35472 4.35468 2.40366C3.3006 2.85541 2.51833 3.77396 2.24019 4.88652L2.22836 4.93384C2.1771 5.13891 2.1425 5.3467 2.15027 5.55794C2.18459 6.49042 2.55377 9.35675 5.59847 12.4014Z" stroke="#5F5E66" stroke-width="1.5"/>
</svg>
