<svg width="32" height="32" viewBox="0 0 32 32" fill="none" xmlns="http://www.w3.org/2000/svg">
<path d="M32 0V32H0V0H32Z" fill="white" fill-opacity="0.01"/>
<path d="M13.1707 18.8285C15.7588 21.4167 17.8536 23.1167 19.3646 24.1995C20.1293 24.7475 20.5117 25.0215 21.0394 24.992C21.3524 24.9745 21.7505 24.8045 21.9796 24.5905C22.3659 24.2297 22.4396 23.7137 22.5871 22.6816C22.904 20.463 23.7751 18.3601 25.1197 16.5672L25.972 15.4637C27.5087 13.474 28.277 12.4791 28.2048 11.3496C28.1325 10.2201 27.2437 9.33129 25.466 7.5536L24.4456 6.53325C22.6679 4.75556 21.7791 3.86671 20.6496 3.79445C19.5201 3.7222 18.5252 4.49054 16.5355 6.02723L15.432 6.87947C13.6391 8.22414 11.5362 9.09519 9.31765 9.41213C8.28553 9.55957 7.76947 9.6333 7.40866 10.0196C7.19468 10.2487 7.02469 10.6468 7.0072 10.9598C6.97771 11.4875 7.2517 11.8699 7.79966 12.6346C8.88249 14.1456 10.5825 16.2404 13.1707 18.8285ZM13.1707 18.8285L6.57109 25.4285" stroke="#16489A" stroke-width="2" stroke-linecap="round"/>
</svg>
