<?xml version="1.0" encoding="UTF-8"?>
<svg xmlns="http://www.w3.org/2000/svg" xmlns:xlink="http://www.w3.org/1999/xlink" style="display: none;">
  <defs>
    <!-- Иконка телефона -->
     <symbol id="icon-phone" viewBox="0 0 18 18" >
      <path d="M18 0V18H0V0H18Z" fill="white" stroke='none' fill-opacity="0.01"/>
      <path d="M5.59847 12.4014C8.64317 15.4461 11.5095 15.8153 12.442 15.8496C12.6532 15.8574 12.861 15.8228 13.0661 15.7716L13.1215 15.7577C14.229 15.4808 15.1433 14.7022 15.593 13.6529C15.6437 13.5346 15.629 13.3978 15.5497 13.2963C14.7448 12.2655 13.6425 11.5249 12.5723 10.7851C12.3726 10.647 12.1024 10.6705 11.9307 10.8422L10.8551 11.9178C10.7212 12.0517 10.5239 12.0982 10.3491 12.0251C9.83089 11.8085 8.7025 11.2628 7.71979 10.2801C6.73708 9.29742 6.19140 8.16903 5.97479 7.6508C5.90175 7.47607 5.94823 7.27872 6.08214 7.14481L7.15835 6.0686C7.32975 5.89719 7.35350 5.62754 7.21699 5.42723C6.48831 4.35792 5.74878 3.20358 4.70110 2.43936C4.60071 2.36614 4.46889 2.35472 4.35468 2.40366C3.30060 2.85541 2.51833 3.77396 2.24019 4.88652L2.22836 4.93384C2.17710 5.13891 2.14250 5.34670 2.15027 5.55794C2.18459 6.49042 2.55377 9.35675 5.59847 12.4014Z"  stroke-width="1.5"/>
    </symbol>

    <!-- Иконка пользователя -->
    <symbol id="icon-user" viewBox="0 0 18 18" >
      <path d="M15 13.875C15 15.3247 12.3137 15.75 9 15.75C5.68629 15.75 3 15.3247 3 13.875C3 12.4253 5.68629 10.5 9 10.5C12.3137 10.5 15 12.4253 15 13.875Z"  stroke-width="1.5"/>
      <path d="M12 5.25C12 6.90685 10.6569 8.25 9 8.25C7.34315 8.25 6 6.90685 6 5.25C6 3.59315 7.34315 2.25 9 2.25C10.6569 2.25 12 3.59315 12 5.25Z"  stroke-width="1.5"/>
    </symbol>

    <!-- Иконка глаза -->
    <symbol id="icon-eye" viewBox="0 0 18 18" >
      <path d="M15.75 9C15.75 10.875 12.7279 14.25 9 14.25C5.27208 14.25 2.25 10.875 2.25 9C2.25 7.125 5.27208 3.75 9 3.75C12.7279 3.75 15.75 7.125 15.75 9Z"  stroke-width="1.5"/>
      <path d="M8.25977 7.69531C8.35324 8.78169 9.21748 9.64529 10.3037 9.73926C10.0458 10.1931 9.55932 10.5 9 10.5C8.17157 10.5 7.5 9.82843 7.5 9C7.5 8.44081 7.80609 7.95327 8.25977 7.69531Z"  stroke-width="1.5"/>
    </symbol>

    <!-- Иконка изображения -->
    <symbol id="icon-image" viewBox="0 0 17 16" >
      <path d="M13.8333 3.02255V12.9781C13.8333 13.1745 13.6742 13.3337 13.4778 13.3337H3.52221C3.32584 13.3337 3.16666 13.1745 3.16666 12.9781V3.02255C3.16666 2.82618 3.32584 2.66699 3.52221 2.66699H13.4778C13.6742 2.66699 13.8333 2.82618 13.8333 3.02255Z" fill="none"  stroke-width="1.5" stroke-linecap="round" stroke-linejoin="round"/>
      <path d="M7.3148 7.3335L3.16666 10.4914V13.3335H13.8333V11.7545L7.3148 7.3335Z" />
      <path d="M10.8333 6.66699C10.281 6.66699 9.83331 6.21928 9.83331 5.66699C9.83331 5.11471 10.281 4.66699 10.8333 4.66699C11.3856 4.66699 11.8333 5.11471 11.8333 5.66699C11.8333 6.21928 11.3856 6.66699 10.8333 6.66699Z" fill="none"  stroke-width="1.5" stroke-linecap="round" stroke-linejoin="round"/>
    </symbol>

    <!-- Иконка запрета -->
    <symbol id="icon-ban" viewBox="0 0 17 16" >
      <path d="M8.5 1.00024C12.366 1.00024 15.5 4.13425 15.5 8.00024C15.5 11.8662 12.366 15.0002 8.5 15.0002C4.63401 15.0002 1.5 11.8662 1.5 8.00024C1.5 4.13425 4.63401 1.00024 8.5 1.00024ZM5.875 7.12524C5.39175 7.12524 5 7.51699 5 8.00024C5 8.48349 5.39175 8.87524 5.875 8.87524H11.125C11.6082 8.87524 12 8.48349 12 8.00024C12 7.51699 11.6082 7.12524 11.125 7.12524H5.875Z" />
    </symbol>

    <!-- Иконка звезды -->
    <symbol id="icon-star" viewBox="0 0 17 16" >
      <path d="M8.16667 2.00024L9.90146 3.47865L12.1736 3.65998L12.3549 5.93212L13.8333 7.66691L12.3549 9.4017L12.1736 11.6738L9.90146 11.8551L8.16667 13.3336L6.43187 11.8551L4.15973 11.6738L3.97841 9.4017L2.5 7.66691L3.97841 5.93212L4.15973 3.65998L6.43187 3.47865L8.16667 2.00024Z" fill="var(--color-bg-white)"  stroke-width="1.5"/>
      <path d="M6.66316 11.8551L8.5 13.3336V2.00024L6.66316 3.47865L4.25736 3.65998L4.06538 5.93212L2.5 7.66691L4.06538 9.4017L4.25736 11.6738L6.66316 11.8551Z"  />
    </symbol>
    <!-- Иконка звука -->
<symbol id="icon-volume" viewBox="0 0 17 16" fill="none" stroke="none">
  <g clip-path="url(#clip0_108_701)">
    <path fill-rule="evenodd" clip-rule="evenodd" d="M11.5631 4.64669C11.7584 4.45143 12.0749 4.45143 12.2702 4.64669L11.9167 5.00024C12.2702 4.64669 12.2701 4.64654 12.2702 4.64669L12.2709 4.64731L12.2715 4.64803L12.2733 4.64975L12.2777 4.65433L12.2909 4.66801C12.3014 4.67913 12.3155 4.69425 12.3325 4.7133C12.3665 4.75138 12.4126 4.80528 12.4667 4.87438C12.5747 5.01235 12.7155 5.21231 12.8556 5.46915C13.1357 5.98267 13.4167 6.73131 13.4167 7.66691C13.4167 8.60251 13.1357 9.35118 12.8556 9.86464C12.7155 10.1215 12.5747 10.3214 12.4667 10.4594C12.4126 10.5285 12.3665 10.5824 12.3325 10.6205C12.3155 10.6396 12.3014 10.6547 12.2909 10.6658L12.2777 10.6795L12.2733 10.684L12.2715 10.6858L12.2709 10.6865C12.2707 10.6866 12.2702 10.6871 11.9305 10.3474L12.2702 10.6871C12.0749 10.8824 11.7584 10.8824 11.5631 10.6871C11.3684 10.4924 11.3679 10.1772 11.5614 9.98178C11.5619 9.98118 11.5625 9.98058 11.5631 9.98004L11.9167 10.3336C11.5631 9.98004 11.5633 9.97991 11.5631 9.98004L11.5626 9.98058L11.5614 9.98178L11.5649 9.97804C11.5691 9.97371 11.5765 9.96571 11.5868 9.95418C11.6075 9.93104 11.6395 9.89384 11.6791 9.84311C11.7587 9.74151 11.8678 9.58731 11.9777 9.38584C12.1976 8.98264 12.4167 8.39798 12.4167 7.66691C12.4167 6.93584 12.1976 6.35115 11.9777 5.948C11.8678 5.74651 11.7587 5.5923 11.6791 5.49069C11.6395 5.44 11.6075 5.40276 11.5868 5.37963C11.5765 5.36808 11.5691 5.3601 11.5649 5.35575L11.5614 5.35207C11.3679 5.15667 11.3684 4.84138 11.5631 4.64669Z" fill="var(--color-dark)" stroke="none"/>
    <path fill-rule="evenodd" clip-rule="evenodd" d="M13.5631 2.64669C13.7584 2.45143 14.0749 2.45143 14.2702 2.64669L13.9167 3.00024C14.2702 2.64669 14.2701 2.64652 14.2702 2.64669L14.2709 2.64739L14.2718 2.64824L14.2739 2.65042L14.28 2.65666C14.2849 2.66164 14.2913 2.66829 14.2991 2.67658C14.3147 2.69317 14.3361 2.71638 14.3625 2.74612C14.4152 2.80559 14.4877 2.89132 14.5734 3.00268C14.7446 3.22524 14.9691 3.55126 15.1925 3.9757C15.6397 4.8254 16.0833 6.0715 16.0833 7.66691C16.0833 9.26231 15.6397 10.5084 15.1925 11.3581C14.9691 11.7826 14.7446 12.1086 14.5734 12.3311C14.4877 12.4425 14.4152 12.5282 14.3625 12.5877C14.3361 12.6174 14.3147 12.6406 14.2991 12.6572C14.2913 12.6655 14.2849 12.6722 14.28 12.6772L14.2739 12.6834L14.2718 12.6856L14.2709 12.6864C14.2708 12.6866 14.2702 12.6871 13.9167 12.3336L14.2702 12.6871C14.0749 12.8824 13.7584 12.8824 13.5631 12.6871C13.3681 12.4921 13.3679 12.176 13.5625 11.9806C13.5624 11.9807 13.5625 11.9806 13.5625 11.9806L13.5619 11.9813C13.5619 11.9812 13.5619 11.9812 13.5625 11.9806L13.5717 11.971C13.5805 11.9617 13.5949 11.9462 13.6141 11.9245C13.6525 11.8811 13.7102 11.8132 13.7808 11.7214C13.9221 11.5377 14.1143 11.2596 14.3075 10.8924C14.6937 10.1587 15.0833 9.07151 15.0833 7.66691C15.0833 6.26232 14.6937 5.17509 14.3075 4.44145C14.1143 4.07422 13.9221 3.79608 13.7808 3.61239C13.7102 3.52062 13.6525 3.4527 13.6141 3.40931C13.5949 3.38762 13.5805 3.37209 13.5717 3.3628L13.5629 3.35358C13.5622 3.3529 13.5619 3.35254 13.5618 3.3525L13.5629 3.35358C13.3679 3.15829 13.3679 2.84186 13.5631 2.64669Z" fill="var(--color-dark)" stroke="none"/>
    <path fill-rule="evenodd" clip-rule="evenodd" d="M8.27446 2.26443C9.05012 1.75298 10.0833 2.30932 10.0833 3.23844V12.7622C10.0833 13.6914 9.05012 14.2477 8.27446 13.7362L4.27507 11.0993C4.24784 11.0814 4.21594 11.0718 4.18332 11.0718H2.24999C1.23747 11.0718 0.416656 10.251 0.416656 9.23843V6.76223C0.416656 5.74972 1.23747 4.92892 2.24999 4.92892H4.18332C4.21594 4.92892 4.24784 4.91934 4.27507 4.90139L8.27446 2.26443Z" fill="var(--color-dark)" stroke="none"/>
  </g>
  <defs>
    <clipPath id="clip0_108_701">
      <rect width="16" height="16" fill="white" transform="translate(0.25 0.000244141)"/>
    </clipPath>
  </defs>
</symbol>

<!-- Иконка выключения звука -->
<symbol id="icon-volume-off" viewBox="0 0 17 16" fill="none" stroke="none">
  <g clip-path="url(#clip0_108_1439)">
    <mask id="mask0_108_1439" style="mask-type:luminance" maskUnits="userSpaceOnUse" x="0" y="0" width="17" height="17">
      <path d="M16.25 0.000244141H0.25V16.0002H16.25V0.000244141Z" fill="white" stroke="none" />
    </mask>
    <g mask="url(#mask0_108_1439)">
      <path fill-rule="evenodd" clip-rule="evenodd" d="M11.8964 6.31324C12.0917 6.11795 12.4082 6.11792 12.6035 6.31316L13.5835 7.29295L14.5631 6.31324C14.7584 6.11795 15.0749 6.11792 15.2702 6.31316C15.4655 6.5084 15.4655 6.82495 15.2703 7.02028L14.2907 8.00008L15.2703 8.97988C15.4655 9.17522 15.4655 9.49175 15.2702 9.68702C15.0749 9.88228 14.7584 9.88222 14.5631 9.68695L13.5835 8.70722L12.6035 9.68702C12.4082 9.88228 12.0917 9.88222 11.8964 9.68695C11.7012 9.49162 11.7012 9.17508 11.8965 8.97982L12.8765 8.00008L11.8965 7.02035C11.7012 6.82508 11.7012 6.50852 11.8964 6.31324Z" fill="var(--color-dark)" stroke="none"/>
      <path fill-rule="evenodd" clip-rule="evenodd" d="M8.94114 2.26443C9.71681 1.75298 10.75 2.30932 10.75 3.23844V12.7622C10.75 13.6914 9.71681 14.2477 8.94114 13.7362L4.94176 11.0993C4.91452 11.0814 4.88262 11.0718 4.85001 11.0718H2.91668C1.90416 11.0718 1.08334 10.251 1.08334 9.23843V6.76223C1.08334 5.74972 1.90416 4.92892 2.91668 4.92892H4.85001C4.88262 4.92892 4.91452 4.91934 4.94176 4.90139L8.94114 2.26443Z" fill="var(--color-dark)" stroke="none"/>
    </g>
  </g>
  <defs>
    <clipPath id="clip0_108_1439">
      <rect width="16" height="16" fill="white" transform="translate(0.25 0.000244141)"/>
    </clipPath>
  </defs>
</symbol>

<!-- Иконка настроек -->
<symbol id="icon-settings" viewBox="0 0 16 16" fill="none" stroke="none">
  <g clip-path="url(#clip0_108_1692)">
    <path d="M8 10.0002C9.1046 10.0002 10 9.10484 10 8.00024C10 6.89564 9.1046 6.00024 8 6.00024C6.8954 6.00024 6 6.89564 6 8.00024C6 9.10484 6.8954 10.0002 8 10.0002Z" stroke="var(--color-dark)" stroke-width="1.5" stroke-linecap="round" stroke-linejoin="round"/>
    <path d="M13.0816 6.93043L12.3498 5.16336L13.3333 4.00016L12 2.66683L10.8431 3.65546L9.03851 2.91332L8.62351 1.3335H7.32065L6.89938 2.93425L5.13625 3.67747L3.99998 2.66683L2.66665 4.00016L3.63556 5.19273L2.91498 6.96436L1.33331 7.3335V8.66683L2.93405 9.10383L3.67715 10.8666L2.66665 12.0002L3.99998 13.3335L5.19409 12.3604L6.93131 13.075L7.33331 14.6668H8.66665L9.06965 13.0756L10.8367 12.3438C11.1312 12.5544 12 13.3335 12 13.3335L13.3333 12.0002L12.3439 10.8331L13.0759 9.0655L14.6666 8.65163L14.6666 7.3335L13.0816 6.93043Z" stroke="var(--color-dark)" stroke-width="1.5" stroke-linecap="round" stroke-linejoin="round"/>
  </g>
  <defs>
    <clipPath id="clip0_108_1692">
      <rect width="16" height="16" fill="white" transform="translate(0 0.000244141)"/>
    </clipPath>
  </defs>
</symbol>
<!-- Иконка меню (бургер) -->
<symbol id="icon-menu" viewBox="0 0 18 18" fill="none" stroke="none">
  <path d="M18 0V18H0V0H18Z" fill="none" fill-opacity="0.01"/>
  <path d="M3 4.5H15M3 9H15M3 13.5H15" stroke="var(--color-text-white)" stroke-width="1.5" stroke-linecap="round"/>
</symbol>
   <!-- Иконка закрытия (крестик) -->
<symbol id="icon-close" viewBox="0 0 16 16" fill="none" stroke="none">
  <path d="M4.50549 11.495L8.00058 7.99998M8.00058 7.99998L11.4956 4.50488M8.00058 7.99998L4.50549 4.50488M8.00058 7.99998L11.4956 11.495" stroke="var(--color-text-white)" stroke-width="1.5" stroke-linecap="round" stroke-linejoin="round"/>
</symbol>

<!-- Иконка документа -->
<symbol id="icon-document" viewBox="0 0 24 24" fill="none" stroke="none">
  <path d="M24 0V24H0V0H24Z" fill="white" fill-opacity="0.01"/>
  <path d="M3 6.5L6.87853 9.7321C9.32738 11.7728 10.5518 12.7932 12 12.7932C13.4482 12.7932 14.6726 11.7728 17.1215 9.7321L21 6.5M10 19.5H14C17.2875 19.5 18.9312 19.5 20.0376 18.592C20.2401 18.4258 20.4258 18.2401 20.592 18.0376C21.5 16.9312 21.5 15.2875 21.5 12C21.5 8.71252 21.5 7.06878 20.592 5.96243C20.4258 5.75989 20.2401 5.57418 20.0376 5.40796C18.9312 4.5 17.2875 4.5 14 4.5H10C6.71252 4.5 5.06878 4.5 3.96243 5.40796C3.75989 5.57418 3.57418 5.75989 3.40796 5.96243C2.5 7.06878 2.5 8.71252 2.5 12C2.5 15.2875 2.5 16.9312 3.40796 18.0376C3.57418 18.2401 3.75989 18.4258 3.96243 18.592C5.06878 19.5 6.71252 19.5 10 19.5Z" stroke="#16489A" stroke-width="1.5"/>
</symbol>

<!-- Иконка местоположения -->
<symbol id="icon-location" viewBox="0 0 24 24" fill="none" stroke="none">
  <path d="M24 0V24H0V0H24Z" fill="white" fill-opacity="0.01"/>
  <path d="M20.5 10.9287C20.5 14.5436 18.0098 17.4469 15.7251 19.35C14.3275 20.5142 13.6287 21.0963 12 21.0963C10.3713 21.0963 9.67251 20.5142 8.27486 19.35C5.99017 17.4469 3.5 14.5436 3.5 10.9287C3.5 6.23429 7.30558 2.42871 12 2.42871C16.6944 2.42871 20.5 6.23429 20.5 10.9287Z" stroke="#16489A" stroke-width="1.5"/>
  <path d="M15 11.001C15 12.6578 13.6569 14.001 12 14.001C10.3431 14.001 9 12.6578 9 11.001C9 9.34412 10.3431 8.00098 12 8.00098C13.6569 8.00098 15 9.34412 15 11.001Z" stroke="#16489A" stroke-width="1.5"/>
</symbol>

<!-- Иконка времени -->
<symbol id="icon-time" viewBox="0 0 24 24" fill="none" stroke="none">
  <path d="M24 0V24H0V0H24Z" fill="white" fill-opacity="0.01"/>
  <path d="M12 8V9.51472C12 10.741 12 11.3541 12.2284 11.9054C12.4567 12.4567 12.8903 12.8903 13.7574 13.7574L14 14M20 12C20 16.4183 16.4183 20 12 20C7.58172 20 4 16.4183 4 12C4 7.58172 7.58172 4 12 4C16.4183 4 20 7.58172 20 12Z" stroke="#16489A" stroke-width="1.5" stroke-linecap="round"/>
</symbol>

  </defs>
</svg>