<svg width="213" height="163" viewBox="0 0 213 163" fill="none" xmlns="http://www.w3.org/2000/svg">
<path d="M110 110C125.163 110 137.5 97.6633 137.5 82.5C137.5 67.3367 125.163 55 110 55C94.8367 55 82.5 67.3367 82.5 82.5C82.5 97.6633 94.8367 110 110 110ZM110 68.75C117.583 68.75 123.75 74.9167 123.75 82.5C123.75 90.0833 117.583 96.25 110 96.25C102.417 96.25 96.25 90.0833 96.25 82.5C96.25 74.9167 102.417 68.75 110 68.75ZM171.875 82.5C187.038 82.5 199.375 70.1633 199.375 55C199.375 39.8367 187.038 27.5 171.875 27.5C156.712 27.5 144.375 39.8367 144.375 55C144.375 70.1633 156.712 82.5 171.875 82.5ZM171.875 41.25C179.458 41.25 185.625 47.4167 185.625 55C185.625 62.5833 179.458 68.75 171.875 68.75C164.292 68.75 158.125 62.5833 158.125 55C158.125 47.4167 164.292 41.25 171.875 41.25ZM171.875 96.25C151.767 96.25 134.999 110.718 131.374 129.786C125.133 125.982 117.832 123.75 110 123.75C102.168 123.75 94.8669 125.982 88.6264 129.786C85.0009 110.718 68.233 96.25 48.125 96.25C25.3784 96.25 6.875 114.753 6.875 137.5V158.125C6.875 161.922 9.95331 165 13.75 165H68.75V185.625C68.75 189.422 71.8283 192.5 75.625 192.5H144.375C148.172 192.5 151.25 189.422 151.25 185.625V165H206.25C210.047 165 213.125 161.922 213.125 158.125V137.5C213.125 114.753 194.622 96.25 171.875 96.25ZM20.625 151.25V137.5C20.625 122.337 32.9617 110 48.125 110C63.2883 110 75.625 122.337 75.625 137.5V142.247C73.7787 145.026 72.2916 148.054 71.1569 151.25H20.625ZM137.5 178.75H82.5V165C82.5 149.837 94.8367 137.5 110 137.5C125.163 137.5 137.5 149.837 137.5 165V178.75ZM199.375 151.25H148.843C147.708 148.054 146.221 145.026 144.375 142.247V137.5C144.375 122.337 156.712 110 171.875 110C187.038 110 199.375 122.337 199.375 137.5V151.25ZM48.125 82.5C63.2883 82.5 75.625 70.1633 75.625 55C75.625 39.8367 63.2883 27.5 48.125 27.5C32.9617 27.5 20.625 39.8367 20.625 55C20.625 70.1633 32.9617 82.5 48.125 82.5ZM48.125 41.25C55.7083 41.25 61.875 47.4167 61.875 55C61.875 62.5833 55.7083 68.75 48.125 68.75C40.5417 68.75 34.375 62.5833 34.375 55C34.375 47.4167 40.5417 41.25 48.125 41.25Z" fill="white" fill-opacity="0.2"/>
</svg>
