<svg width="173" height="182" viewBox="0 0 173 182" fill="none" xmlns="http://www.w3.org/2000/svg">
<path d="M11.875 148.438H17.8125V71.25C17.8125 61.4294 25.8044 53.4375 35.625 53.4375V29.6875C35.625 27.1284 37.2578 24.8603 39.6862 24.0528L93.1237 6.24031C94.3469 5.83656 95.6591 5.83656 96.8822 6.24031L150.32 24.0528C152.742 24.8663 154.375 27.1284 154.375 29.6875C154.375 32.2466 152.742 34.5147 150.314 35.3222L130.625 41.8831V53.4375H154.375C164.196 53.4375 172.188 61.4294 172.188 71.25V148.438H178.125C181.402 148.438 184.062 151.098 184.062 154.375V166.25C184.062 176.071 176.071 184.062 166.25 184.062H23.75C13.9294 184.062 5.9375 176.071 5.9375 166.25V154.375C5.9375 151.098 8.5975 148.438 11.875 148.438ZM59.375 41.8831L47.5 37.9228V53.4375H59.375V41.8831ZM95 18.1331L60.3369 29.6875L67.6103 32.11L67.6281 32.1159L95 41.2419L122.372 32.1159L122.39 32.11L129.663 29.6875L95 18.1331ZM96.8763 53.1347C96.2647 53.3366 95.6353 53.4375 95 53.4375C94.3647 53.4375 93.7353 53.3366 93.1237 53.1347L71.25 45.8434V69.4153C73.1678 71.6894 79.4141 77.1875 95 77.1875C110.693 77.1875 116.915 71.6122 118.75 69.4391V45.8434L96.8763 53.1347ZM160.312 71.25C160.312 67.9784 157.647 65.3125 154.375 65.3125H130.625V71.25C130.625 72.1703 130.411 73.0847 130.002 73.9041C129.224 75.4538 121.647 89.0625 95 89.0625C68.3525 89.0625 60.7762 75.4538 59.9984 73.9041C59.5887 73.0847 59.375 72.1703 59.375 71.25V65.3125H47.5C47.5 68.59 44.84 71.25 41.5625 71.25C38.285 71.25 35.625 68.59 35.625 65.3125C32.3534 65.3125 29.6875 67.9784 29.6875 71.25V148.438H160.312V71.25ZM17.8125 166.25C17.8125 169.522 20.4784 172.188 23.75 172.188H166.25C169.522 172.188 172.188 169.522 172.188 166.25V160.312H117.099C115.039 163.845 111.257 166.25 106.875 166.25H83.125C78.7491 166.25 74.9609 163.845 72.9006 160.312H17.8125V166.25ZM148.438 106.875C148.438 103.598 145.778 100.938 142.5 100.938H136.562C133.285 100.938 130.625 103.598 130.625 106.875C130.625 110.152 133.285 112.812 136.562 112.812H142.5C145.778 112.812 148.438 110.152 148.438 106.875ZM95 130.625H142.5C145.778 130.625 148.438 127.965 148.438 124.688C148.438 121.41 145.778 118.75 142.5 118.75H95C91.7225 118.75 89.0625 121.41 89.0625 124.688C89.0625 127.965 91.7225 130.625 95 130.625Z" fill="white" fill-opacity="0.2"/>
</svg>
