<svg width="169" height="183" viewBox="0 0 169 183" fill="none" xmlns="http://www.w3.org/2000/svg">
<path d="M44.5313 88.647H56.4063C66.2032 88.647 74.2188 80.6313 74.2188 70.8345V58.9595C74.2188 56.347 72.497 54.1501 70.122 53.3782L65.1938 32.122L78.4938 30.3407C80.3938 35.0907 84.2532 38.7126 89.0626 40.4345V100.047C89.0626 103.313 91.7345 105.984 95.0001 105.984C98.2657 105.984 100.938 103.313 100.938 100.047V40.4938C105.747 38.772 109.606 35.0907 111.506 30.4001L124.806 32.1813L119.878 53.4376C117.503 54.2095 115.781 56.347 115.781 59.0188V70.8938C115.781 80.6907 123.797 88.7063 133.594 88.7063H145.469C155.266 88.7063 163.281 80.6907 163.281 70.8938V59.0188C163.281 56.347 161.5 54.1501 159.006 53.4376L154.078 34.972C155.741 34.0813 156.988 32.5376 157.225 30.5782C157.641 27.3126 155.384 24.3438 152.119 23.9282L111.863 18.5845C109.606 11.3407 102.897 6.11572 94.9407 6.11572C86.9845 6.11572 80.3345 11.4001 78.0188 18.5845L37.7626 23.9282C34.497 24.3438 32.2407 27.372 32.6563 30.5782C32.8938 32.5376 34.2001 34.0813 35.8032 34.972L30.8751 53.4376C28.4407 54.1501 26.6001 56.347 26.6001 59.0188V70.8938C26.6001 80.6907 34.6157 88.7063 44.4126 88.7063L44.5313 88.647ZM62.3438 70.8345C62.3438 74.1001 59.672 76.772 56.4063 76.772H44.5313C41.2657 76.772 38.5938 74.1001 38.5938 70.8345V64.897H62.3438V70.8345ZM57.8313 53.022H43.3438L48.272 34.3782L53.3782 33.7251L57.8907 53.022H57.8313ZM141.728 34.3782L146.656 53.022H132.169L136.681 33.7251L141.788 34.3782H141.728ZM151.406 70.8345C151.406 74.1001 148.734 76.772 145.469 76.772H133.594C130.328 76.772 127.656 74.1001 127.656 70.8345V64.897H151.406V70.8345ZM95.0001 17.8126C98.2657 17.8126 100.938 20.4845 100.938 23.7501C100.938 27.0157 98.2657 29.6876 95.0001 29.6876C91.7345 29.6876 89.0626 27.0157 89.0626 23.7501C89.0626 20.4845 91.7345 17.8126 95.0001 17.8126Z" fill="#D0DAEB"/>
<path d="M181.391 119.759C179.728 118.631 177.65 118.453 175.809 119.284L163.519 124.569C162.213 119.819 161.856 114.831 165.062 110.556C166.309 108.894 166.606 106.638 165.775 104.678C164.944 102.719 163.162 101.353 161.084 101.116C160.609 101.116 118.572 96.0688 95 129.853C71.4281 96.1282 29.3906 101.116 28.9156 101.116C26.8375 101.413 24.9969 102.778 24.225 104.678C23.3937 106.638 23.6906 108.894 24.9375 110.556C28.1437 114.831 27.7875 119.819 26.4813 124.569L14.1906 119.284C12.35 118.513 10.2719 118.691 8.60938 119.759C6.94688 120.888 5.9375 122.728 5.9375 124.688V148.259C5.9375 150.634 7.3625 152.772 9.5 153.722L76.7125 182.638C78.9688 183.588 81.3438 184.063 83.7188 184.063H106.162C108.597 184.063 110.972 183.588 113.228 182.638L180.441 153.722C182.637 152.772 184.003 150.634 184.003 148.259V124.688C184.003 122.669 182.994 120.828 181.331 119.759H181.391ZM151.287 112.575C149.863 118.809 151.169 124.866 152.475 129.2L100.938 151.228V142.797C114.297 117.503 138.522 112.991 151.287 112.516V112.575ZM38.7125 112.575C51.4781 113.05 75.7031 117.563 89.0625 142.856V151.288L37.525 129.259C38.8906 124.866 40.1375 118.869 38.7125 112.634V112.575ZM172.188 144.4L108.597 171.772C107.825 172.069 107.053 172.247 106.222 172.247H83.7781C82.9469 172.247 82.175 172.069 81.4625 171.772L17.8125 144.4V133.772L92.6844 165.775C94.1687 166.428 95.8906 166.428 97.375 165.775L172.247 133.772V144.4H172.188Z" fill="#D0DAEB"/>
</svg>
