<svg width="150" height="178" viewBox="0 0 150 178" fill="none" xmlns="http://www.w3.org/2000/svg">
<path d="M16.058 116.454L30.4494 90.9314C27.7276 74.3006 30.4459 56.9338 38.3564 40.5565C45.2044 26.3785 56.9161 14.9075 71.3344 8.25568C97.9461 -4.02081 126.517 -2.54949 149.714 12.2944C172.32 26.7607 185.816 51.4007 185.816 78.2063C185.816 89.3122 183.533 100.045 179.03 110.108C175.036 119.033 169.491 127.019 162.526 133.879V178.546C162.526 181.356 160.53 183.769 157.77 184.294L75.8638 199.897C75.4999 199.966 75.1332 200 74.7689 200C73.4185 200 72.0966 199.532 71.0387 198.657C69.6957 197.545 68.9179 195.893 68.9179 194.149V179.502H51.8952C43.9144 179.502 37.1585 173.79 35.8315 165.92L31.104 137.887H28.5771C23.4115 137.887 18.7721 135.224 16.1668 130.763C13.5616 126.303 13.521 120.953 16.058 116.454ZM26.2714 124.861C26.5601 125.355 27.2439 126.184 28.5775 126.184H36.0511C38.9072 126.184 41.3459 128.246 41.8206 131.062L47.3704 163.974C47.7441 166.191 49.6472 167.8 51.8952 167.8H74.7689C78.0002 167.8 80.6199 170.419 80.6199 173.651V187.078L150.824 173.705V131.375C150.824 129.742 151.507 128.184 152.706 127.076C166.311 114.517 174.114 96.7043 174.114 78.2063C174.114 62.8034 168.866 48.2451 159.535 36.6239C159.487 36.5736 159.436 36.5283 159.39 36.4761C139.412 13.9791 104.855 11.9293 82.3576 31.9072C64.8422 47.4614 63.246 74.3657 78.8002 91.8816C90.8154 105.412 111.598 106.644 125.128 94.6296C135.469 85.4459 136.412 69.5609 127.228 59.2195C123.877 55.4457 119.256 53.2024 114.218 52.904C109.18 52.6033 104.326 54.286 100.552 57.6374C97.7667 60.1112 96.1109 63.5212 95.8905 67.24C95.6701 70.9585 96.9105 74.5409 99.3843 77.3259C101.156 79.3207 103.597 80.5061 106.26 80.6645C108.924 80.8217 111.488 79.9339 113.483 78.1626C116.295 75.6658 116.551 71.3466 114.054 68.535C111.908 66.1186 112.128 62.4204 114.545 60.275C116.961 58.1293 120.659 58.3489 122.805 60.765C129.585 68.4016 128.89 80.1313 121.253 86.9121C116.922 90.759 111.352 92.6867 105.568 92.3457C99.7845 92.0025 94.4808 89.4281 90.6344 85.096C86.0851 79.9733 83.8036 73.3859 84.2092 66.5469C84.6149 59.7079 87.6598 53.4364 92.7825 48.8875C105.398 37.6841 124.775 38.8344 135.979 51.4495C149.446 66.6159 148.064 89.9117 132.898 103.379C124.435 110.896 113.88 114.59 103.363 114.59C91.0732 114.589 78.8342 109.543 70.0507 99.6516C50.2124 77.3111 52.2478 42.996 74.5879 23.1577C78.026 20.1047 81.6957 17.4764 85.5327 15.2667C82.4161 16.2625 79.3124 17.4624 76.2367 18.8814C64.2754 24.3997 54.5651 33.9051 48.8936 45.6465C41.7457 60.4451 39.474 76.082 42.3234 90.8682C42.5859 92.2303 42.3557 93.6411 41.6747 94.8492L26.2516 122.202C25.5962 123.363 25.9828 124.367 26.2714 124.861Z" fill="#D0DAEB"/>
</svg>
