<svg width="180" height="175" viewBox="0 0 180 175" fill="none" xmlns="http://www.w3.org/2000/svg">
<path d="M175 43.75H131.25V31.25C131.25 20.9125 122.838 12.5 112.5 12.5H87.5C77.1625 12.5 68.75 20.9125 68.75 31.25V43.75H25C14.6625 43.75 6.25 52.1625 6.25 62.5V168.75C6.25 179.087 14.6625 187.5 25 187.5H175C185.337 187.5 193.75 179.087 193.75 168.75V62.5C193.75 52.1625 185.337 43.75 175 43.75ZM81.25 31.25C81.25 27.8 84.0563 25 87.5 25H112.5C115.944 25 118.75 27.8 118.75 31.25V43.75H81.25V31.25ZM25 56.25H175C178.444 56.25 181.25 59.05 181.25 62.5V87.5C181.25 97.8375 172.837 106.25 162.5 106.25H118.75V93.75C118.75 90.2937 115.95 87.5 112.5 87.5H87.5C84.05 87.5 81.25 90.2937 81.25 93.75V106.25H37.5C27.1625 106.25 18.75 97.8375 18.75 87.5V62.5C18.75 59.05 21.5562 56.25 25 56.25ZM93.75 100H106.25V118.75C106.25 122.2 103.444 125 100 125C96.5563 125 93.75 122.2 93.75 118.75V100ZM175 175H25C21.5562 175 18.75 172.2 18.75 168.75V112.344C23.9875 116.306 30.4375 118.75 37.5 118.75H81.25C81.25 129.088 89.6625 137.5 100 137.5C110.338 137.5 118.75 129.088 118.75 118.75H162.5C169.562 118.75 176.012 116.306 181.25 112.344V168.75C181.25 172.2 178.444 175 175 175Z" fill="#D0DAEB"/>
</svg>
