<svg width="180" height="176" viewBox="0 0 180 176" fill="none" xmlns="http://www.w3.org/2000/svg">
<path d="M84.375 106.875H5.625V96.4655L16.875 82.403V28.125C16.875 15.7159 26.9659 5.625 39.375 5.625H84.375C96.7841 5.625 106.875 15.7159 106.875 28.125V84.375C106.875 96.7841 96.7841 106.875 84.375 106.875ZM20.7037 95.625H84.375C90.5768 95.625 95.625 90.5768 95.625 84.375V28.125C95.625 21.9232 90.5768 16.875 84.375 16.875H39.375C33.1732 16.875 28.125 21.9232 28.125 28.125V86.347L20.7037 95.625ZM163.125 149.908V95.625C163.125 83.194 153.056 73.125 140.625 73.125H118.125V84.375H140.625C146.81 84.375 151.875 89.4397 151.875 95.625V153.842L159.302 163.125H95.625C89.4397 163.125 84.375 158.06 84.375 151.875V118.125H73.125V151.875C73.125 164.306 83.194 174.375 95.625 174.375H174.375V163.971L163.125 149.908Z" fill="#D0DAEB"/>
<path d="M43.2812 81.9999V31.0908H79.0767V42.2272H57.1023V48.1931H62.2727C66.5483 48.1931 70.2853 48.8808 73.4837 50.2563C76.6986 51.6318 79.1927 53.5707 80.9659 56.0731C82.7557 58.5754 83.6506 61.517 83.6506 64.8976C83.6506 68.2783 82.7557 71.253 80.9659 73.8216C79.1927 76.3903 76.6986 78.3955 73.4837 79.8373C70.2853 81.279 66.5483 81.9999 62.2727 81.9999H43.2812ZM57.1023 71.1618H62.2727C63.9299 71.1618 65.322 70.8884 66.4489 70.3415C67.5923 69.7947 68.4541 69.0406 69.0341 68.0795C69.6307 67.1183 69.929 66.0245 69.929 64.7982C69.929 63.0581 69.2744 61.6164 67.9652 60.4729C66.656 59.3129 64.7585 58.7329 62.2727 58.7329H57.1023V71.1618Z" fill="#D0DAEB"/>
<path d="M109.915 149.909H95L111.804 99H130.696L147.5 149.909H132.585L121.449 113.02H121.051L109.915 149.909ZM107.131 129.824H135.17V140.165H107.131V129.824Z" fill="#D0DAEB"/>
</svg>
