<svg width="171" height="168" viewBox="0 0 171 168" fill="none" xmlns="http://www.w3.org/2000/svg">
<path d="M167.912 126.709C166.882 128.362 165.077 129.375 163.125 129.375H151.875V144.202C151.875 155.346 144.939 163.125 135 163.125H118.125V168.75C118.125 171.855 115.611 174.375 112.5 174.375C109.389 174.375 106.875 171.855 106.875 168.75V157.5C106.875 154.395 109.389 151.875 112.5 151.875H135C140.22 151.875 140.625 146.002 140.625 144.202V123.75C140.625 120.645 143.139 118.125 146.25 118.125H154.024L141.221 92.5144C140.828 91.7381 140.625 90.8719 140.625 90V78.75C140.625 44.055 115.464 16.875 83.3512 16.875C49.8037 16.875 22.5 44.6344 22.5 78.75C22.5 90.2025 26.37 99.6975 32.6025 111.296L33.2213 112.449C40.3931 125.73 50.0006 144.816 50.6194 157.224L50.625 168.75C50.625 171.855 48.1106 174.375 45 174.375C41.8894 174.375 39.375 171.855 39.375 168.75V157.5C39.015 150.283 33.6094 136.828 23.3212 117.793L22.6912 116.618C17.1562 106.324 11.25 94.0556 11.25 78.75C11.25 38.43 43.5938 5.625 83.3512 5.625C121.776 5.625 151.875 37.7438 151.875 78.75V88.6725L168.159 121.236C169.031 122.979 168.936 125.049 167.912 126.709ZM78.4687 84.375C78.6487 85.2863 78.75 86.2256 78.75 87.1875C78.75 94.9388 72.4444 101.25 64.6875 101.25H61.875V112.5C61.875 115.605 59.3606 118.125 56.25 118.125C53.1394 118.125 50.625 115.605 50.625 112.5V101.25H47.8125C40.0556 101.25 33.75 94.9388 33.75 87.1875C33.75 84.0206 34.8019 81.1013 36.5681 78.75C34.8019 76.3987 33.75 73.4794 33.75 70.3125C33.75 65.3231 36.3656 60.93 40.2919 58.4325C39.7013 56.88 39.375 55.1981 39.375 53.4375C39.375 46.5637 44.3362 40.8262 50.8612 39.6112C52.0762 33.0806 57.8137 28.125 64.6875 28.125C67.8544 28.125 70.7737 29.1769 73.125 30.9431C77.8275 27.405 85.2975 27.405 90 30.9431C92.3513 29.1769 95.2763 28.125 98.4375 28.125C105.311 28.125 111.049 33.0806 112.264 39.6112C118.789 40.8262 123.75 46.5637 123.75 53.4375C123.75 54.4781 123.632 55.4906 123.418 56.4694C129.994 57.645 135 63.405 135 70.3125C135 78.0638 128.694 84.375 120.938 84.375H78.4687ZM59.0625 78.75C59.0625 75.645 61.5769 73.125 64.6875 73.125H120.938C122.484 73.125 123.75 71.865 123.75 70.3125C123.75 68.76 122.484 67.5 120.938 67.5H109.688C106.577 67.5 104.062 64.98 104.062 61.875C104.062 58.77 106.577 56.25 109.688 56.25C111.234 56.25 112.5 54.99 112.5 53.4375C112.5 51.4913 110.554 49.9163 108.473 50.9344C106.318 52.0031 103.714 51.5756 102.015 49.8713C100.311 48.1725 99.8775 45.5737 100.941 43.4137C101.143 42.9806 101.25 42.5813 101.25 42.1875C101.25 40.635 99.9844 39.375 98.4375 39.375C96.8906 39.375 95.625 40.635 95.625 42.1875C95.625 45.2925 93.1106 47.8125 90 47.8125C86.8894 47.8125 84.375 45.2925 84.375 42.1875C84.375 40.635 83.1094 39.375 81.5625 39.375C80.0156 39.375 78.75 40.635 78.75 42.1875C78.75 45.2925 76.2356 47.8125 73.125 47.8125C70.0144 47.8125 67.5 45.2925 67.5 42.1875C67.5 40.635 66.2344 39.375 64.6875 39.375C63.1406 39.375 61.875 40.635 61.875 42.1875C61.875 42.5813 61.9819 42.9806 62.19 43.4137C63.2475 45.5737 62.8144 48.1725 61.1156 49.8713C59.4112 51.5756 56.8237 52.0031 54.6581 50.9344C52.5656 49.9163 50.625 51.4913 50.625 53.4375C50.625 54.99 51.8906 56.25 53.4375 56.25C56.5481 56.25 59.0625 58.77 59.0625 61.875C59.0625 64.98 56.5481 67.5 53.4375 67.5H47.8125C46.2656 67.5 45 68.76 45 70.3125C45 71.865 46.2656 73.125 47.8125 73.125C50.9231 73.125 53.4375 75.645 53.4375 78.75C53.4375 81.855 50.9231 84.375 47.8125 84.375C46.2656 84.375 45 85.635 45 87.1875C45 88.74 46.2656 90 47.8125 90H64.6875C66.2344 90 67.5 88.74 67.5 87.1875C67.5 85.635 66.2344 84.375 64.6875 84.375C61.5769 84.375 59.0625 81.855 59.0625 78.75Z" fill="#D0DAEB"/>
</svg>
