<svg width="172" height="154" viewBox="0 0 172 154" fill="none" xmlns="http://www.w3.org/2000/svg">
<path d="M28.125 45.0112C28.1531 41.9175 30.6619 39.4313 33.75 39.4313H33.795C40.6687 39.4875 46.755 39.6 52.155 39.8306C55.26 39.96 57.6675 42.5812 57.5381 45.6862C57.4144 48.7069 54.9225 51.075 51.9244 51.075C51.84 51.075 51.7669 51.075 51.6825 51.0694C46.3894 50.85 40.4381 50.7375 33.705 50.6813C30.5944 50.6531 28.0969 48.1162 28.125 45.0112ZM128.076 51.075C128.16 51.075 128.233 51.075 128.318 51.0694C133.611 50.85 139.562 50.7319 146.295 50.6813C149.406 50.6531 151.903 48.1162 151.875 45.0112C151.847 41.9175 149.338 39.4313 146.25 39.4313C146.233 39.4313 146.222 39.4313 146.205 39.4313C139.326 39.4875 133.245 39.6 127.839 39.8306C124.734 39.96 122.327 42.5812 122.456 45.6862C122.586 48.7069 125.077 51.075 128.076 51.075ZM174.375 16.875V151.875C174.375 154.986 171.861 157.5 168.75 157.5C147.324 157.5 123.249 157.5 114.542 159.227C111.741 162.838 104.901 168.75 90.1181 168.75C75.2906 168.75 68.3437 162.804 65.5087 159.238C56.8575 157.5 32.7263 157.5 11.25 157.5C8.13938 157.5 5.625 154.986 5.625 151.875V16.875C5.625 13.7644 8.13938 11.25 11.25 11.25C58.2244 11.25 79.8469 11.25 90 22.41C100.153 11.25 121.776 11.25 168.75 11.25C171.861 11.25 174.375 13.7644 174.375 16.875ZM95.625 34.8075V39.825C114.677 42.57 129.375 58.9556 129.375 78.75C129.375 84.465 128.121 89.8819 125.927 94.7925L149.67 118.541C151.194 120.066 152.252 121.877 152.932 123.789C156.161 123.772 159.57 123.761 163.131 123.761V22.5C113.034 22.5506 99.9506 23.4056 95.625 34.8075ZM61.875 78.75C61.875 94.2581 74.4919 106.875 90 106.875C105.508 106.875 118.125 94.2581 118.125 78.75C118.125 63.2419 105.508 50.625 90 50.625C74.4919 50.625 61.875 63.2419 61.875 78.75ZM95.625 130.601C100.851 127.564 107.691 125.916 116.392 125.027L106.037 114.677C102.774 116.139 99.2813 117.146 95.6194 117.675L95.625 130.601ZM137.734 130.461C138.78 131.49 140.67 131.507 141.716 130.455C142.768 129.397 142.768 127.547 141.711 126.489L119.717 104.496C118.491 105.913 117.163 107.241 115.746 108.467L132.846 125.572C132.953 125.662 133.031 125.758 133.132 125.859L137.734 130.461ZM16.875 22.5V123.75C52.9763 123.767 73.0912 124.104 84.375 130.517V117.675C65.3231 114.93 50.625 98.5444 50.625 78.75C50.625 58.9556 65.3231 42.57 84.375 39.825V34.8075C80.0494 23.4056 66.9656 22.5506 16.875 22.5ZM163.125 146.25V135.006C159.255 135.006 155.571 135.017 152.083 135.034C151.448 136.243 150.683 137.402 149.664 138.42C147.032 141.041 143.415 142.538 139.719 142.538C136.024 142.538 132.407 141.036 129.78 138.426L126.922 135.563C103.207 136.676 97.8862 140.377 95.3325 148.033C94.5731 150.328 92.4244 151.875 90 151.875C87.5756 151.875 85.4269 150.328 84.6675 148.027C80.6288 135.917 67.9388 135.051 16.875 135.006V146.25C45.4219 146.284 63.4162 146.588 70.7231 148.978C72.1969 149.456 73.4062 150.525 74.0644 151.92C74.115 151.987 77.3831 157.5 90.1181 157.5C102.757 157.5 105.862 152.072 105.986 151.841C106.672 150.581 107.927 149.411 109.294 148.967C116.618 146.587 134.606 146.284 163.125 146.25ZM33.75 78.8063C35.7694 78.8063 37.6819 78.8625 39.5381 78.9187H39.7237C42.7444 78.9187 45.2419 76.5169 45.3375 73.4681C45.4388 70.3631 43.0031 67.7644 39.8925 67.6744C37.9238 67.6125 35.8931 67.5563 33.75 67.5563C30.6394 67.5563 28.125 70.0706 28.125 73.1813C28.125 76.2919 30.6394 78.8063 33.75 78.8063ZM146.25 67.5563C144.107 67.5563 142.076 67.6125 140.108 67.6744C136.997 67.77 134.567 70.3687 134.663 73.4681C134.758 76.5169 137.256 78.9187 140.276 78.9187C140.338 78.9187 140.394 78.9188 140.456 78.9131C142.312 78.8569 144.225 78.8006 146.244 78.8006C149.355 78.8006 151.869 76.2862 151.869 73.1756C151.869 70.065 149.361 67.5563 146.25 67.5563ZM33.6713 106.931L44.685 107.1H44.775C47.8406 107.1 50.3494 104.636 50.4 101.565C50.4506 98.46 47.97 95.9006 44.865 95.85L33.8287 95.6813C30.7856 95.6194 28.17 98.1169 28.125 101.228C28.08 104.333 30.5663 106.886 33.6713 106.931Z" fill="#D0DAEB"/>
</svg>
