<svg width="175" height="170" viewBox="0 0 175 170" fill="none" xmlns="http://www.w3.org/2000/svg">
<path d="M61.875 112.5C52.5713 112.5 45 120.071 45 129.375C45 138.679 52.5713 146.25 61.875 146.25C71.1787 146.25 78.75 138.679 78.75 129.375C78.75 120.071 71.1787 112.5 61.875 112.5ZM61.875 135C58.7756 135 56.25 132.48 56.25 129.375C56.25 126.27 58.7756 123.75 61.875 123.75C64.9744 123.75 67.5 126.27 67.5 129.375C67.5 132.48 64.9744 135 61.875 135ZM67.5 78.75C67.5 69.4463 59.9287 61.875 50.625 61.875C41.3213 61.875 33.75 69.4463 33.75 78.75C33.75 88.0537 41.3213 95.625 50.625 95.625C59.9287 95.625 67.5 88.0537 67.5 78.75ZM45 78.75C45 75.645 47.5256 73.125 50.625 73.125C53.7244 73.125 56.25 75.645 56.25 78.75C56.25 81.855 53.7244 84.375 50.625 84.375C47.5256 84.375 45 81.855 45 78.75ZM90 33.75C80.6963 33.75 73.125 41.3213 73.125 50.625C73.125 59.9287 80.6963 67.5 90 67.5C99.3037 67.5 106.875 59.9287 106.875 50.625C106.875 41.3213 99.3037 33.75 90 33.75ZM90 56.25C86.9006 56.25 84.375 53.73 84.375 50.625C84.375 47.52 86.9006 45 90 45C93.0994 45 95.625 47.52 95.625 50.625C95.625 53.73 93.0994 56.25 90 56.25ZM174.375 45C174.375 34.2337 168.784 28.6425 164.289 24.1481C160.346 20.205 157.5 17.3587 157.5 11.25C157.5 8.13938 154.986 5.625 151.875 5.625C145.344 5.625 138.054 10.3162 131.929 16.8469C119.211 9.50625 104.833 5.625 90 5.625C43.4756 5.625 5.625 43.4756 5.625 90C5.625 136.524 43.4756 174.375 90 174.375C98.1844 174.375 102.696 174.375 109.693 170.353C122.096 163.181 116.972 150.531 112.86 140.361C108.714 130.117 104.423 119.526 111.381 110.244C115.644 104.541 120.611 103.224 129.459 105.823C129.409 108.028 129.375 110.261 129.375 112.5C129.375 127.012 130.596 174.375 146.25 174.375C161.904 174.375 163.125 127.012 163.125 112.5C163.125 96.3225 161.713 80.8256 159.3 69.7613C168.216 65.0419 174.375 55.7719 174.375 45ZM102.375 103.5C91.6031 117.855 97.8581 133.307 102.431 144.585C107.061 156.026 107.336 158.726 104.074 160.611C99.6975 163.125 97.4475 163.125 90 163.125C49.68 163.125 16.875 130.32 16.875 90C16.875 49.68 49.68 16.875 90 16.875C102.324 16.875 114.3 19.9631 124.976 25.8244C120.819 32.3494 118.125 39.3469 118.125 45C118.125 55.7719 124.284 65.0419 133.2 69.7613C131.721 76.545 130.635 85.0163 130.005 94.2694C121.984 92.34 110.914 92.0925 102.375 103.5ZM151.875 112.5C151.875 136.969 148.776 153.371 146.25 160.268C143.724 153.366 140.625 136.963 140.625 112.5C140.625 97.3856 141.885 83.0869 144.034 72.9C144.776 72.9619 145.491 73.125 146.25 73.125C147.009 73.125 147.724 72.9619 148.466 72.9C150.615 83.0869 151.875 97.3856 151.875 112.5ZM146.25 61.875C136.946 61.875 129.375 54.3037 129.375 45C129.375 36.9956 139.337 23.1244 147.206 18.4556C148.989 24.7612 152.972 28.7381 156.336 32.1019C160.279 36.045 163.125 38.8913 163.125 45C163.125 54.3037 155.554 61.875 146.25 61.875Z" fill="#D0DAEB"/>
</svg>
