<svg width="420" height="166" viewBox="0 0 420 166" fill="none" xmlns="http://www.w3.org/2000/svg">
<path d="M286.436 101.124L357.357 4.47363H402.103V101.124H420.001V131.775H402.103V161.084H364.74V131.775H286.436V101.124ZM364.74 101.124V47.2058L323.574 101.124H364.74Z" fill="#16489A"/>
<path d="M207.922 165.559C196.586 165.559 186.444 163.471 177.495 159.295C168.695 155.119 161.312 149.376 155.346 142.068C149.38 134.61 144.83 125.81 141.698 115.668C138.566 105.525 137 94.5627 137 82.7796C137 70.9966 138.566 60.0339 141.698 49.8915C144.83 39.7491 149.38 31.0237 155.346 23.7152C161.312 16.2576 168.695 10.4407 177.495 6.2644C186.444 2.08813 196.586 0 207.922 0C219.407 0 229.549 2.08813 238.349 6.2644C247.149 10.4407 254.532 16.2576 260.498 23.7152C266.464 31.0237 271.013 39.7491 274.145 49.8915C277.278 60.0339 278.844 70.9966 278.844 82.7796C278.844 94.5627 277.278 105.525 274.145 115.668C271.013 125.81 266.464 134.61 260.498 142.068C254.532 149.376 247.149 155.119 238.349 159.295C229.549 163.471 219.407 165.559 207.922 165.559ZM207.922 129.986C214.186 129.986 219.481 128.644 223.807 125.959C228.132 123.275 231.637 119.695 234.322 115.22C237.156 110.746 239.169 105.675 240.363 100.007C241.556 94.3389 242.152 88.5966 242.152 82.7796C242.152 76.9627 241.556 71.2203 240.363 65.5525C239.169 59.8847 237.156 54.8135 234.322 50.339C231.637 45.8644 228.132 42.2847 223.807 39.6C219.481 36.9152 214.186 35.5729 207.922 35.5729C201.658 35.5729 196.363 36.9152 192.037 39.6C187.712 42.2847 184.132 45.8644 181.298 50.339C178.613 54.8135 176.674 59.8847 175.481 65.5525C174.288 71.2203 173.691 76.9627 173.691 82.7796C173.691 88.5966 174.288 94.3389 175.481 100.007C176.674 105.675 178.613 110.746 181.298 115.22C184.132 119.695 187.712 123.275 192.037 125.959C196.363 128.644 201.658 129.986 207.922 129.986Z" fill="#16489A"/>
<path d="M183 98.9995L208.707 53.9995L233 98.9995H183Z" fill="#F68738"/>
<path d="M0 101.124L70.9219 4.47363H115.668V101.124H133.566V131.775H115.668V161.084H78.3049V131.775H0V101.124ZM78.3049 101.124V47.2058L37.1389 101.124H78.3049Z" fill="#16489A"/>
</svg>
