<svg width="706" height="279" viewBox="0 0 706 279" fill="none" xmlns="http://www.w3.org/2000/svg">
<path d="M481.244 169.903L600.402 7.51783H675.58V169.903H705.652V221.4H675.58V270.642H612.806V221.4H481.244V169.903ZM612.806 169.903V79.3132L543.642 169.903H612.806Z" fill="#1F3F81"/>
<path d="M349.714 278.16C330.669 278.16 313.629 274.652 298.593 267.635C283.808 260.618 271.404 250.971 261.38 238.691C251.356 226.162 243.713 211.377 238.45 194.336C233.188 177.296 230.557 158.877 230.557 139.08C230.557 119.283 233.188 100.864 238.45 83.8239C243.713 66.7835 251.356 52.1237 261.38 39.8445C271.404 27.3148 283.808 17.5416 298.593 10.525C313.629 3.50832 330.669 0 349.714 0C369.01 0 386.051 3.50832 400.836 10.525C415.621 17.5416 428.025 27.3148 438.049 39.8445C448.073 52.1237 455.716 66.7835 460.978 83.8239C466.241 100.864 468.872 119.283 468.872 139.08C468.872 158.877 466.241 177.296 460.978 194.336C455.716 211.377 448.073 226.162 438.049 238.691C428.025 250.971 415.621 260.618 400.836 267.635C386.051 274.652 369.01 278.16 349.714 278.16ZM349.714 218.393C360.239 218.393 369.135 216.138 376.403 211.627C383.67 207.116 389.559 201.102 394.07 193.584C398.831 186.066 402.214 177.546 404.219 168.024C406.223 158.501 407.226 148.853 407.226 139.08C407.226 129.307 406.223 119.659 404.219 110.136C402.214 100.614 398.831 92.0935 394.07 84.5757C389.559 77.0578 383.67 71.0436 376.403 66.5329C369.135 62.0222 360.239 59.7668 349.714 59.7668C339.189 59.7668 330.293 62.0222 323.026 66.5329C315.759 71.0436 309.745 77.0578 304.983 84.5757C300.473 92.0935 297.215 100.614 295.21 110.136C293.205 119.659 292.203 129.307 292.203 139.08C292.203 148.853 293.205 158.501 295.21 168.024C297.215 177.546 300.473 186.066 304.983 193.584C309.745 201.102 315.759 207.116 323.026 211.627C330.293 216.138 339.189 218.393 349.714 218.393Z" fill="#1F3F81"/>
<path d="M0 169.903L119.158 7.51783H194.336V169.903H224.407V221.4H194.336V270.642H131.562V221.4H0V169.903ZM131.562 169.903V79.3132L62.3981 169.903H131.562Z" fill="#1F3F81"/>
<path d="M305 170L350.758 91L394 170H305Z" fill="#E87F3E"/>
</svg>
