<svg width="200" height="67" viewBox="0 0 200 67" fill="none" xmlns="http://www.w3.org/2000/svg">
<path d="M174.336 65.2804V33.2706H200V38.758H180.576V46.669H199.061V51.882H180.576V59.793H200V65.2804H174.336Z" fill="#1F3F81"/>
<path d="M137.865 65.2804V33.2706H144.105V55.9976L161.934 33.2706H168.221V65.2804H161.934V42.5534L144.105 65.2804H137.865Z" fill="#1F3F81"/>
<path d="M102.357 65.2804V33.2706H108.597V46.5318H125.487V33.2706H131.774V65.2804H125.487V52.0192H108.597V65.2804H102.357Z" fill="#1F3F81"/>
<path d="M93.1807 65.2804L90.5534 59.2443H74.93L72.3027 65.2804H65.8281L79.481 33.2706H86.0024L99.6553 65.2804H93.1807ZM77.0882 54.077H88.3952L82.7651 41.0901L77.0882 54.077Z" fill="#1F3F81"/>
<path d="M33.7227 65.2804V33.2706H39.9626V46.5318H56.8527V33.2706H63.1396V65.2804H56.8527V52.0192H39.9626V65.2804H33.7227Z" fill="#1F3F81"/>
<path d="M3.84719 42.0504L0 38.8952C2.90885 34.6882 9.61798 32.356 14.7319 32.356C23.74 32.356 29.8392 36.3801 29.6515 42.0047C29.5108 45.8001 26.8365 47.9951 23.4585 49.2755C26.8365 50.5559 29.5108 52.7509 29.6515 56.5463C29.8392 62.1709 23.74 66.195 14.7319 66.195C9.61798 66.195 2.90885 63.8629 0 59.6558L3.84719 56.5006C6.84987 59.7016 11.9638 60.7991 15.4826 60.7991C20.1743 60.7991 23.3177 59.0614 23.4116 56.775C23.6931 51.2876 14.9665 51.7906 9.80564 51.7906V46.7604C14.9665 46.7604 23.6931 47.2635 23.4116 41.7761C23.3177 39.4896 20.1743 37.752 15.4826 37.752C11.9638 37.752 6.84987 38.8494 3.84719 42.0504Z" fill="#1F3F81"/>
<path d="M32.5586 27.8227L49.075 0.622665L65.3066 27.8227H32.5586Z" fill="#E87F3E"/>
</svg>
