<svg width="170" height="57" viewBox="0 0 170 57" fill="none" xmlns="http://www.w3.org/2000/svg">
<path d="M147.922 55.541V28.3811H169.697V33.0371H153.216V39.7495H168.901V44.1726H153.216V50.885H169.697V55.541H147.922Z" fill="white"/>
<path d="M116.977 55.541V28.3811H122.272V47.6646L137.399 28.3811H142.733V55.541H137.399V36.2575L122.272 55.541H116.977Z" fill="white"/>
<path d="M86.8486 55.541V28.3811H92.1431V39.6331H106.474V28.3811H111.808V55.541H106.474V44.289H92.1431V55.541H86.8486Z" fill="white"/>
<path d="M79.0627 55.541L76.8335 50.4194H63.5773L61.348 55.541H55.8545L67.4387 28.3811H72.9721L84.5563 55.541H79.0627ZM65.4085 46.035H75.0023L70.2253 35.0159L65.4085 46.035Z" fill="white"/>
<path d="M28.6135 55.541V28.3811H33.908V39.6331H48.239V28.3811H53.5733V55.541H48.239V44.289H33.908V55.541H28.6135Z" fill="white"/>
<path d="M3.26428 35.8308L0 33.1536C2.46812 29.584 8.16071 27.6052 12.4998 27.6052C20.143 27.6052 25.3181 31.0196 25.1589 35.792C25.0394 39.0124 22.7704 40.8748 19.9042 41.9612C22.7704 43.0476 25.0394 44.91 25.1589 48.1303C25.3181 52.9027 20.143 56.3171 12.4998 56.3171C8.16071 56.3171 2.46812 54.3383 0 50.7687L3.26428 48.0915C5.81202 50.8075 10.1511 51.7387 13.1367 51.7387C17.1176 51.7387 19.7847 50.2643 19.8644 48.3243C20.1032 43.6684 12.6989 44.0952 8.31994 44.0952V39.8272C12.6989 39.8272 20.1032 40.254 19.8644 35.598C19.7847 33.658 17.1176 32.1836 13.1367 32.1836C10.1511 32.1836 5.81202 33.1148 3.26428 35.8308Z" fill="white"/>
<path d="M27.625 23.7587L41.6389 0.679932L55.4112 23.7587H27.625Z" fill="#E87F3E"/>
</svg>
