<svg width="170" height="140" viewBox="0 0 170 140" fill="none" xmlns="http://www.w3.org/2000/svg">
<path d="M147.663 139.203V111.329H169.349V116.108H152.936V122.996H168.556V127.536H152.936V134.425H169.349V139.203H147.663Z" fill="white"/>
<path d="M116.845 139.203V111.329H122.118V131.12L137.183 111.329H142.495V139.203H137.183V119.413L122.118 139.203H116.845Z" fill="white"/>
<path d="M86.8408 139.203V111.329H92.1136V122.877H106.386V111.329H111.698V139.203H106.386V127.655H92.1136V139.203H86.8408Z" fill="white"/>
<path d="M79.0866 139.203L76.8665 133.947H63.6647L61.4446 139.203H55.9736L67.5103 111.329H73.0209L84.5576 139.203H79.0866ZM65.4884 129.447H75.0428L70.2854 118.138L65.4884 129.447Z" fill="white"/>
<path d="M28.8447 139.203V111.329H34.1175V122.877H48.3896V111.329H53.702V139.203H48.3896V127.655H34.1175V139.203H28.8447Z" fill="white"/>
<path d="M3.59951 118.975L0.348633 116.227C2.80661 112.564 8.47582 110.533 12.7971 110.533C20.4089 110.533 25.5627 114.037 25.4042 118.935C25.2852 122.24 23.0255 124.152 20.171 125.267C23.0255 126.382 25.2852 128.293 25.4042 131.598C25.5627 136.496 20.4089 140 12.7971 140C8.47582 140 2.80661 137.969 0.348633 134.306L3.59951 131.558C6.13678 134.346 10.4581 135.301 13.4314 135.301C17.3959 135.301 20.0521 133.788 20.1314 131.797C20.3693 127.019 12.9953 127.457 8.6344 127.457V123.077C12.9953 123.077 20.3693 123.515 20.1314 118.736C20.0521 116.745 17.3959 115.232 13.4314 115.232C10.4581 115.232 6.13678 116.188 3.59951 118.975Z" fill="white"/>
<path d="M144.785 96.7168H25.8955L84.8486 0L144.785 96.7168ZM112.029 79.9395H57.6152C63.0517 89.3784 73.2112 95.7295 84.8486 95.7295C102.213 95.7295 116.29 81.5901 116.29 64.1484C116.29 46.7069 102.213 32.5674 84.8486 32.5674L112.029 79.9395ZM84.8486 32.5674C67.4839 32.5674 53.4074 46.7069 53.4072 64.1484C53.4072 69.8933 54.9347 75.2798 57.6035 79.9209L84.8486 32.5674ZM71.4502 72.0439C74.1555 76.4889 79.0313 79.4559 84.5977 79.4561C90.1642 79.4561 95.0406 76.489 97.7461 72.0439H71.4502ZM97.7598 72.0205C99.1794 69.6789 99.998 66.9293 99.998 63.9873C99.9979 55.559 93.2863 48.7055 84.9385 48.5234L97.7598 72.0205ZM84.5977 48.5195C76.0927 48.5197 69.1984 55.4447 69.1982 63.9873C69.1982 66.8401 69.9677 69.5122 71.3086 71.8066L84.7539 48.5205C84.7019 48.52 84.6498 48.5195 84.5977 48.5195Z" fill="#E87F3E"/>
</svg>
