<svg width="370" height="306" viewBox="0 0 370 306" fill="none" xmlns="http://www.w3.org/2000/svg">
<path d="M322.522 304.259V243.334H370V253.779H334.066V268.836H368.264V278.758H334.066V293.815H370V304.259H322.522Z" fill="#16489A"/>
<path d="M255.052 304.259V243.334H266.596V286.591L299.578 243.334H311.209V304.259H299.578V261.003L266.596 304.259H255.052Z" fill="#16489A"/>
<path d="M189.361 304.259V243.334H200.905V268.575H232.152V243.334H243.783V304.259H232.152V279.019H200.905V304.259H189.361Z" fill="#16489A"/>
<path d="M172.385 304.259L167.525 292.771H138.622L133.761 304.259H121.783L147.041 243.334H159.106L184.363 304.259H172.385ZM142.614 282.936H163.532L153.117 258.218L142.614 282.936Z" fill="#16489A"/>
<path d="M62.3877 304.259V243.334H73.9316V268.575H105.178V243.334H116.809V304.259H105.178V279.019H73.9316V304.259H62.3877Z" fill="#16489A"/>
<path d="M7.1173 260.045L0 254.04C5.38137 246.033 17.7933 241.594 27.2541 241.594C43.919 241.594 55.2025 249.253 54.8553 259.958C54.5949 267.182 49.6475 271.36 43.3982 273.797C49.6475 276.234 54.5949 280.412 54.8553 287.635C55.2025 298.341 43.919 306 27.2541 306C17.7933 306 5.38137 301.561 0 293.554L7.1173 287.548C12.6723 293.641 22.1331 295.73 28.6428 295.73C37.3224 295.73 43.1378 292.422 43.3114 288.071C43.8322 277.626 27.688 278.584 18.1404 278.584V269.01C27.688 269.01 43.8322 269.967 43.3114 259.523C43.1378 255.171 37.3224 251.864 28.6428 251.864C22.1331 251.864 12.6723 253.953 7.1173 260.045Z" fill="#16489A"/>
<path d="M316.221 211.395H55.9307L185 0L316.221 211.395ZM244.508 174.724H125.373C137.275 195.356 159.521 209.237 185 209.237C223.018 209.237 253.837 178.333 253.837 140.211C253.837 102.088 223.018 71.1836 185 71.1836L244.508 174.724ZM185 71.1836C146.982 71.1836 116.163 102.088 116.163 140.211C116.163 152.768 119.508 164.542 125.352 174.687L185 71.1836ZM155.665 157.468C161.588 167.183 172.264 173.668 184.451 173.668C196.638 173.668 207.314 167.183 213.237 157.468H155.665ZM213.268 157.418C216.376 152.3 218.167 146.289 218.167 139.858C218.167 121.436 203.474 106.456 185.197 106.059L213.268 157.418ZM184.451 106.05C165.83 106.05 150.735 121.186 150.735 139.858C150.735 146.095 152.421 151.936 155.357 156.951L184.793 106.054C184.679 106.053 184.565 106.05 184.451 106.05Z" fill="#E87F3E"/>
</svg>
