<svg width="145" height="120" viewBox="0 0 145 120" fill="none" xmlns="http://www.w3.org/2000/svg">
<g opacity="0.5">
<path d="M126.394 119.317V95.4253H145V99.5211H130.918V105.426H144.32V109.317H130.918V115.222H145V119.317H126.394Z" fill="white"/>
<path d="M99.9526 119.317V95.4253H104.477V112.389L117.402 95.4253H121.96V119.317H117.402V102.354L104.477 119.317H99.9526Z" fill="white"/>
<path d="M74.209 119.317V95.4253H78.7329V105.323H90.9783V95.4253H95.5363V119.317H90.9783V109.419H78.7329V119.317H74.209Z" fill="white"/>
<path d="M67.5562 119.317L65.6514 114.812H54.3245L52.4196 119.317H47.7256L57.6239 95.4253H62.3519L72.2502 119.317H67.5562ZM55.8891 110.955H64.0867L60.0049 101.262L55.8891 110.955Z" fill="white"/>
<path d="M24.4492 119.317V95.4253H28.9732V105.323H41.2185V95.4253H45.7765V119.317H41.2185V109.419H28.9732V119.317H24.4492Z" fill="white"/>
<path d="M2.78921 101.979L0 99.6235C2.10892 96.4834 6.97303 94.7427 10.6806 94.7427C17.2115 94.7427 21.6334 97.7463 21.4973 101.944C21.3953 104.777 19.4565 106.416 17.0074 107.371C19.4565 108.327 21.3953 109.965 21.4973 112.798C21.6334 116.996 17.2115 120 10.6806 120C6.97303 120 2.10892 118.259 0 115.119L2.78921 112.764C4.96616 115.153 8.67377 115.972 11.2249 115.972C14.6264 115.972 16.9054 114.675 16.9734 112.969C17.1775 108.873 10.8507 109.249 7.10909 109.249V105.494C10.8507 105.494 17.1775 105.87 16.9734 101.774C16.9054 100.067 14.6264 98.7702 11.2249 98.7702C8.67377 98.7702 4.96616 99.5894 2.78921 101.979Z" fill="white"/>
<path d="M123.925 82.8994H21.9189L72.5 0L123.925 82.8994ZM95.8203 68.5195H49.1338C53.7983 76.61 62.5152 82.0537 72.5 82.0537C87.3988 82.0537 99.4766 69.9344 99.4766 54.9844C99.4764 40.0345 87.3988 27.915 72.5 27.915L95.8203 68.5195ZM72.5 27.915C57.6012 27.915 45.5236 40.0345 45.5234 54.9844C45.5234 59.9087 46.8341 64.5258 49.124 68.5039L72.5 27.915ZM61.0039 61.752C63.325 65.5618 67.5091 68.1045 72.2852 68.1045C77.0611 68.1044 81.2452 65.5618 83.5664 61.752H61.0039ZM83.5781 61.7324C84.7962 59.7255 85.498 57.3684 85.498 54.8467C85.498 47.6219 79.7391 41.7462 72.5762 41.5908L83.5781 61.7324ZM72.2852 41.5879C64.9878 41.5879 59.0723 47.5243 59.0723 54.8467C59.0723 57.2921 59.7331 59.5822 60.8838 61.5488L72.4189 41.5889C72.3744 41.5884 72.3298 41.5879 72.2852 41.5879Z" fill="white"/>
</g>
</svg>
